<svg xmlns="http://www.w3.org/2000/svg" width="1024" height="1024" viewBox="0 0 1024 1024" version="1.1"><path d="M 503.176 211.007 C 500.798 211.510, 496.523 212.995, 493.676 214.308 C 487.765 217.035, 269.687 342.785, 263.340 347.127 C 253.767 353.675, 246.622 365.782, 245.012 378.183 C 243.814 387.405, 243.736 636.015, 244.928 645 C 246.628 657.818, 252.826 668.981, 262.036 675.811 C 268.942 680.932, 490.784 808.734, 497 811.172 C 504.763 814.217, 519.233 814.217, 527 811.174 C 533.212 808.739, 755.052 680.937, 761.964 675.811 C 771.174 668.981, 777.372 657.818, 779.072 645 C 780.264 636.015, 780.186 387.405, 778.988 378.183 C 777.378 365.783, 770.235 353.678, 760.660 347.125 C 752.173 341.317, 533.290 215.487, 527.835 213.280 C 521.395 210.676, 509.800 209.607, 503.176 211.007 M 488.885 257.750 C 350.544 337.145, 283.039 376.663, 281.600 379.100 C 280.155 381.546, 280 394.447, 280 512 C 280 629.083, 280.160 642.462, 281.586 644.877 C 282.736 646.824, 313.830 665.257, 394.597 711.872 C 455.880 747.242, 507.366 776.689, 509.010 777.310 C 511.228 778.147, 512.770 778.148, 514.984 777.312 C 516.626 776.693, 568.109 747.249, 629.393 711.883 C 710.375 665.148, 741.252 646.844, 742.409 644.886 C 743.842 642.459, 744 629.256, 744 512 C 744 394.447, 743.845 381.546, 742.400 379.100 C 741.236 377.130, 715.524 361.803, 648.194 322.945 C 513.237 245.058, 514.905 246, 512 246 C 510.457 246, 500.847 250.885, 488.885 257.750 M 427 512 L 427 630 482.750 629.969 C 513.413 629.951, 545.475 629.520, 554 629.011 C 580.478 627.428, 591.950 623.144, 605.175 609.901 C 618.732 596.327, 625.831 577.514, 624.729 558.088 C 623.823 542.136, 618.246 530.072, 606.935 519.601 C 601.526 514.592, 589.026 507.325, 582.995 505.682 C 580.614 505.033, 580.705 504.899, 584.996 502.751 C 596.493 496.995, 609.236 479.814, 612.045 466.281 C 613.995 456.892, 612.825 440.809, 609.624 433 C 604.161 419.671, 592.991 407.738, 580.500 401.887 C 565.460 394.843, 555.348 394.019, 483.750 394.009 L 427 394 427 512 M 475 461 L 475 488 504.250 487.969 C 536.383 487.935, 545.808 487.140, 552.232 483.920 C 562.399 478.823, 566.465 472.132, 566.465 460.500 C 566.465 451.641, 564.588 446.731, 559.342 441.864 C 551.924 434.983, 545.631 434.072, 505.250 434.031 L 475 434 475 461 M 475 558.979 L 475 590.199 512.750 589.754 C 544.516 589.379, 551.325 589.043, 555.706 587.629 C 563.300 585.178, 568.966 580.418, 572.490 573.527 C 575.149 568.328, 575.487 566.699, 575.386 559.570 C 575.217 547.652, 571.633 540.540, 563.005 535.004 C 554.698 529.673, 548.318 528.868, 509.750 528.285 L 475 527.760 475 558.979" stroke="none" fill="#04fafa" fill-rule="evenodd"/><path d="M 0 512.001 L 0 1024.002 512.250 1023.751 L 1024.500 1023.500 1024.751 511.750 L 1025.002 0 512.501 0 L 0 0 0 512.001 M 0.496 512.500 C 0.496 794.100, 0.610 909.151, 0.750 768.168 C 0.890 627.186, 0.890 396.786, 0.750 256.168 C 0.610 115.551, 0.496 230.900, 0.496 512.500 M 503.176 211.007 C 500.798 211.510, 496.523 212.995, 493.676 214.308 C 487.765 217.035, 269.687 342.785, 263.340 347.127 C 253.767 353.675, 246.622 365.782, 245.012 378.183 C 243.814 387.405, 243.736 636.015, 244.928 645 C 246.628 657.818, 252.826 668.981, 262.036 675.811 C 268.942 680.932, 490.784 808.734, 497 811.172 C 504.763 814.217, 519.233 814.217, 527 811.174 C 533.212 808.739, 755.052 680.937, 761.964 675.811 C 771.174 668.981, 777.372 657.818, 779.072 645 C 780.264 636.015, 780.186 387.405, 778.988 378.183 C 777.378 365.783, 770.235 353.678, 760.660 347.125 C 752.173 341.317, 533.290 215.487, 527.835 213.280 C 521.395 210.676, 509.800 209.607, 503.176 211.007 M 488.885 257.750 C 350.544 337.145, 283.039 376.663, 281.600 379.100 C 280.155 381.546, 280 394.447, 280 512 C 280 629.083, 280.160 642.462, 281.586 644.877 C 282.736 646.824, 313.830 665.257, 394.597 711.872 C 455.880 747.242, 507.366 776.689, 509.010 777.310 C 511.228 778.147, 512.770 778.148, 514.984 777.312 C 516.626 776.693, 568.109 747.249, 629.393 711.883 C 710.375 665.148, 741.252 646.844, 742.409 644.886 C 743.842 642.459, 744 629.256, 744 512 C 744 394.447, 743.845 381.546, 742.400 379.100 C 741.236 377.130, 715.524 361.803, 648.194 322.945 C 513.237 245.058, 514.905 246, 512 246 C 510.457 246, 500.847 250.885, 488.885 257.750 M 427 512 L 427 630 482.750 629.969 C 513.413 629.951, 545.475 629.520, 554 629.011 C 580.478 627.428, 591.950 623.144, 605.175 609.901 C 618.732 596.327, 625.831 577.514, 624.729 558.088 C 623.823 542.136, 618.246 530.072, 606.935 519.601 C 601.526 514.592, 589.026 507.325, 582.995 505.682 C 580.614 505.033, 580.705 504.899, 584.996 502.751 C 596.493 496.995, 609.236 479.814, 612.045 466.281 C 613.995 456.892, 612.825 440.809, 609.624 433 C 604.161 419.671, 592.991 407.738, 580.500 401.887 C 565.460 394.843, 555.348 394.019, 483.750 394.009 L 427 394 427 512 M 475 461 L 475 488 504.250 487.969 C 536.383 487.935, 545.808 487.140, 552.232 483.920 C 562.399 478.823, 566.465 472.132, 566.465 460.500 C 566.465 451.641, 564.588 446.731, 559.342 441.864 C 551.924 434.983, 545.631 434.072, 505.250 434.031 L 475 434 475 461 M 475 558.979 L 475 590.199 512.750 589.754 C 544.516 589.379, 551.325 589.043, 555.706 587.629 C 563.300 585.178, 568.966 580.418, 572.490 573.527 C 575.149 568.328, 575.487 566.699, 575.386 559.570 C 575.217 547.652, 571.633 540.540, 563.005 535.004 C 554.698 529.673, 548.318 528.868, 509.750 528.285 L 475 527.760 475 558.979" stroke="none" fill="#0c1424" fill-rule="evenodd"/></svg>